<?xml version="1.0" encoding="iso-8859-1"?>
<!-- Uploaded to: SVG Repo, www.svgrepo.com, Generator: SVG Repo Mixer Tools -->
<svg height="800px" width="800px" version="1.1" id="Layer_1" xmlns="http://www.w3.org/2000/svg" xmlns:xlink="http://www.w3.org/1999/xlink" 
	 viewBox="0 0 512.001 512.001" xml:space="preserve">
<g>
	<polygon style="fill:#D80029;" points="107.753,70.826 88.532,51.607 99.777,40.361 107.753,48.337 115.647,40.442 126.892,51.688 
			"/>
	<polygon style="fill:#D80029;" points="316.757,269.027 297.536,249.806 308.781,238.562 316.757,246.538 324.651,238.643 
		335.896,249.887 	"/>
	<polygon style="fill:#D80029;" points="447.517,318.505 428.296,299.285 439.54,288.039 447.517,296.016 455.411,288.121 
		466.656,299.367 	"/>
	<polygon style="fill:#D80029;" points="189.877,471.817 170.656,452.598 181.9,441.352 189.877,449.329 197.771,441.435 
		209.016,452.68 	"/>
</g>
<path style="fill:#1D81CD;" d="M462.259,68.585l-1.873-22.601c-23.707,13.802-55.138,30.508-91.382,45.864l21.75,14.077
	l78.831,51.018L462.259,68.585z"/>
<path style="fill:#F58FBF;" d="M365.424,93.354c-30.341,12.668-63.922,24.304-99.077,32.47l21.336,18.266l62.844,53.802
	l12.589-79.889l3.969-25.189L365.424,93.354z"/>
<path style="fill:#989FED;" d="M164.339,140.126l-3.373,0.482l15.689,22.352l45.424,64.715l32.591-75.591l11.283-26.17
	C231.587,133.869,196.845,138.143,164.339,140.126z"/>
<path style="fill:#C60024;" d="M56.497,139.449l9.477,24.306l31.415,80.578l47.13-79.57l14.409-24.327
	C119.677,142.546,83.971,141.38,56.497,139.449z"/>
<path style="fill:#7C84E7;" d="M164.339,140.126l-3.373,0.482l15.689,22.352c25.277-1.974,51.671-5.392,78.015-10.876l11.283-26.17
	C231.587,133.869,196.845,138.143,164.339,140.126z"/>
<path style="fill:#005ECF;" d="M460.386,45.984c-23.707,13.802-55.138,30.508-91.382,45.864l21.75,14.077
	c28.015-12.91,52.39-26.142,71.507-37.338L460.386,45.984z"/>
<path style="fill:#EF72AC;" d="M365.424,93.354c-30.341,12.668-63.922,24.304-99.077,32.47l21.336,18.266
	c26.535-7.305,51.933-16.37,75.433-26.087l3.969-25.189L365.424,93.354z"/>
<path style="fill:#A50020;" d="M56.497,139.449l9.477,24.306c22.37,1.322,49.253,2.03,78.545,1.008l14.409-24.327
	C119.677,142.546,83.971,141.38,56.497,139.449z"/>
<path style="fill:#EF539D;" d="M341.529,377.274c-32.624-4.092-67.546-10.69-102.109-21.082l10.34,29.002l26.873,75.379
	l48.376-60.239l18.23-22.701L341.529,377.274z"/>
<path style="fill:#989FED;" d="M345.385,377.747l13.713,26.594l41.196,79.89l35.688-76.281l11.493-24.567
	C420.043,383.572,384.467,382.441,345.385,377.747z"/>
<path style="fill:#EB358A;" d="M341.529,377.274c-32.624-4.092-67.546-10.69-102.109-21.082l10.34,29.002
	c25.459,6.821,50.894,11.7,75.249,15.14l18.23-22.701L341.529,377.274z"/>
<path style="fill:#1D81CD;" d="M150.377,422.558l64.16-48.112c-25.024-8.592-49.021-18.836-71.31-29.661L150.377,422.558z"/>
<path style="fill:#005ECF;" d="M143.803,317.889l-3.167-1.258l2.589,28.155c22.289,10.824,46.287,21.067,71.31,29.661l24.499-18.371
	C205.263,345.892,172.993,332.328,143.803,317.889z"/>
<path style="fill:#7C84E7;" d="M345.385,377.747l13.713,26.594c28.788,2.723,55.104,3.598,76.884,3.609l11.493-24.567
	C420.043,383.572,384.467,382.441,345.385,377.747z"/>
<path style="fill:#EEBF00;" d="M50.569,263.688L46.74,289.27c18.222,12.155,41.044,26.36,67.096,40.437l25.117-14.24
	C103.848,297.784,73.447,279.021,50.569,263.688z"/>
<path style="fill:#FED322;" d="M33.905,375.022l79.93-45.315c-26.052-14.077-48.874-28.282-67.096-40.437L33.905,375.022z"/>
<path d="M288.215,112.001c-0.915,0.257-1.827,0.503-2.739,0.754c-1.038,0.286-2.073,0.576-3.114,0.857
	c-5.986,1.61-11.926,3.1-17.814,4.467l-0.429,0.1c-1.054,0.244-2.109,0.476-3.163,0.713c-0.865,0.194-1.725,0.393-2.595,0.584
	c-1.959,0.429-3.919,0.846-5.881,1.252c-0.204,0.042-0.409,0.082-0.613,0.123C129.124,146.08,3.893,125.906,2.601,125.692L0,141.38
	c0.511,0.085,19.955,3.225,50.882,5.553l45.03,115.499l64.461-108.831l63.375,90.292l45.37-105.231l87.05,74.525l17.185-109.055
	l105.494,68.274l-10.13-122.184c26.839-15.813,42.867-27.281,43.285-27.583l-9.31-12.891
	C501.674,10.482,406.056,78.895,288.215,112.001z M98.867,226.235L68.43,148.168c25.73,1.44,51.246,1.729,76.166,0.86
	L98.867,226.235z M220.412,211.461l-45.006-64.121c18.137-1.37,35.721-3.404,52.666-6.056c0.413-0.065,0.827-0.131,1.241-0.197
	c2.625-0.417,5.235-0.846,7.828-1.292c0.941-0.161,1.883-0.328,2.824-0.494c2.13-0.377,4.248-0.764,6.356-1.162
	c1.244-0.234,2.486-0.473,3.73-0.717c0.827-0.162,1.667-0.313,2.489-0.478L220.412,211.461z M344.888,182.598l-61.638-52.769
	c0.364-0.095,0.732-0.201,1.095-0.298c2.272-0.602,4.536-1.216,6.792-1.845c0.847-0.235,1.694-0.475,2.542-0.715
	c1.952-0.553,3.897-1.115,5.837-1.687c1.35-0.396,2.701-0.8,4.054-1.209c0.887-0.268,1.77-0.541,2.655-0.813
	c16.709-5.125,33.688-11.095,50.834-17.915L344.888,182.598z M385.765,93.225c22.745-10.158,45.437-21.594,67.729-34.134
	l6.831,82.389L385.765,93.225z"/>
<path d="M265.282,355.072c-1.558-0.392-3.106-0.794-4.653-1.197c-0.41-0.107-0.821-0.209-1.231-0.317
	c-5.997-1.58-11.896-3.241-17.688-4.982l-0.426-0.128c-0.395-0.119-0.789-0.244-1.184-0.365c-4.132-1.257-8.292-2.585-12.475-3.974
	C109.351,304.784,11.655,225.781,10.644,224.956L0.588,237.275c0.402,0.328,15.712,12.72,41.386,30.113L23.625,389.99
	l110.035-62.384l10.101,109.851l91.68-68.75l38.48,107.939l69.128-86.079l57.591,111.685l51.953-111.05
	c31.144-0.377,50.756-2.36,51.268-2.414l-1.669-15.815C500.948,373.108,383.984,384.927,265.282,355.072z M44.186,360.054
	l12.403-82.867c21.604,14.036,43.602,26.972,65.66,38.611L44.186,360.054z M156.991,407.66l-7.173-78.011
	c17.046,8.127,33.93,15.337,50.542,21.626c0.566,0.214,1.13,0.431,1.697,0.645c1.417,0.532,2.834,1.057,4.247,1.574
	c1.555,0.571,3.116,1.133,4.678,1.692c1.098,0.392,2.197,0.786,3.292,1.168c2.163,0.758,4.334,1.501,6.511,2.234
	c0.374,0.126,0.753,0.262,1.127,0.387L156.991,407.66z M279.344,444.499l-27.247-76.429c0.64,0.173,1.294,0.334,1.937,0.506
	c1.864,0.495,3.729,0.984,5.592,1.459c1.268,0.323,2.543,0.64,3.82,0.957c1.315,0.325,2.629,0.646,3.943,0.96
	c1.591,0.383,3.185,0.764,4.789,1.136c0.434,0.101,0.867,0.196,1.301,0.296c17.603,4.043,35.914,7.442,54.832,10.14L279.344,444.499
	z M399.947,466.21l-40.704-78.935c24.79,2.495,50.164,3.852,75.736,4.052L399.947,466.21z"/>
</svg>